<svg width="20" height="20" viewBox="0 0 20 20" fill="none" xmlns="http://www.w3.org/2000/svg">
<path d="M20 10.1389C20 9.65006 19.8333 9.23895 19.5 8.90561C19.1667 8.57228 18.7556 8.40561 18.2667 8.40561H3.13333V3.00561C3.13333 2.56117 3.28889 2.18339 3.6 1.87228C3.82222 1.65006 4.07778 1.51672 4.36667 1.47228C4.65556 1.42783 4.95556 1.45006 5.26667 1.53895C4.86667 2.16117 4.71111 2.85006 4.8 3.60561C4.88889 4.36117 5.2 5.00561 5.73333 5.53895L5.86667 5.73895C6 5.82784 6.14444 5.87228 6.3 5.87228C6.45556 5.87228 6.57778 5.82784 6.66667 5.73895L10.4667 1.93895C10.6 1.80561 10.6667 1.66117 10.6667 1.50561C10.6667 1.35006 10.6 1.20561 10.4667 1.07228L10.3333 0.938946C9.75556 0.361168 9.05556 0.0500565 8.23333 0.00561142C7.41111 -0.0388317 6.68889 0.18339 6.06667 0.672279C5.53333 0.361168 4.95556 0.238945 4.33333 0.305613C3.71111 0.372278 3.17778 0.627834 2.73333 1.07228C2.2 1.60561 1.93333 2.25006 1.93333 3.00561V8.40561H1.73333C1.24444 8.40561 0.833333 8.57228 0.5 8.90561C0.166667 9.23895 0 9.65006 0 10.1389C0 10.5389 0.111111 10.8834 0.333333 11.1723C0.555556 11.4612 0.822222 11.6723 1.13333 11.8056V13.0723C1.13333 14.1389 1.42222 15.1167 2 16.0056C2.57778 16.8945 3.31111 17.5834 4.2 18.0723L3.66667 19.1389C3.57778 19.3167 3.56667 19.4723 3.63333 19.6056C3.7 19.7389 3.8 19.8501 3.93333 19.9389C4.06667 20.0278 4.21111 20.0389 4.36667 19.9723C4.52222 19.9056 4.64444 19.8056 4.73333 19.6723L5.33333 18.4723C5.77778 18.5612 6.24444 18.6056 6.73333 18.6056H13.2667C13.7556 18.6056 14.2222 18.5612 14.6667 18.4723L15.2667 19.6723C15.3556 19.8056 15.4778 19.9056 15.6333 19.9723C15.7889 20.0389 15.9333 20.0278 16.0667 19.9389C16.2 19.8501 16.3 19.7389 16.3667 19.6056C16.4333 19.4723 16.4222 19.3167 16.3333 19.1389L15.8 18.0723C16.6889 17.5834 17.4222 16.8945 18 16.0056C18.5778 15.1167 18.8667 14.1389 18.8667 13.0723V11.8056C19.1778 11.6723 19.4444 11.4612 19.6667 11.1723C19.8889 10.8834 20 10.5389 20 10.1389ZM9.2 1.53895L6.33333 4.47228C6.02222 4.02783 5.88889 3.56117 5.93333 3.07228C5.97778 2.58339 6.17778 2.16117 6.53333 1.80561C6.88889 1.45006 7.32222 1.25006 7.83333 1.20561C8.34445 1.16117 8.8 1.27228 9.2 1.53895ZM1.73333 9.60561H18.2667C18.4 9.60561 18.5222 9.66117 18.6333 9.77228C18.7444 9.88339 18.8 10.0167 18.8 10.1723C18.8 10.3278 18.7444 10.4612 18.6333 10.5723C18.5222 10.6834 18.4 10.7389 18.2667 10.7389H1.73333C1.6 10.7389 1.47778 10.6834 1.36667 10.5723C1.25556 10.4612 1.2 10.3278 1.2 10.1723C1.2 10.0167 1.25556 9.88339 1.36667 9.77228C1.47778 9.66117 1.6 9.60561 1.73333 9.60561ZM17.6667 13.0723C17.6667 13.8723 17.4667 14.6056 17.0667 15.2723C16.6667 15.9389 16.1333 16.4723 15.4667 16.8723C14.8 17.2723 14.0667 17.4723 13.2667 17.4723H6.73333C5.93333 17.4723 5.2 17.2723 4.53333 16.8723C3.86667 16.4723 3.33333 15.9389 2.93333 15.2723C2.53333 14.6056 2.33333 13.8723 2.33333 13.0723V11.9389H17.6667V13.0723ZM8.46667 5.93895C8.46667 6.11672 8.52222 6.26117 8.63333 6.37228C8.74444 6.48339 8.87778 6.53895 9.03333 6.53895C9.18889 6.53895 9.32222 6.48339 9.43333 6.37228C9.54445 6.26117 9.6 6.11672 9.6 5.93895C9.6 5.76117 9.54445 5.61672 9.43333 5.50561C9.32222 5.3945 9.18889 5.33895 9.03333 5.33895C8.87778 5.33895 8.74444 5.3945 8.63333 5.50561C8.52222 5.61672 8.46667 5.76117 8.46667 5.93895ZM10.1333 4.27228C10.1333 4.45006 10.1889 4.5945 10.3 4.70561C10.4111 4.81672 10.5444 4.87228 10.7 4.87228C10.8556 4.87228 10.9889 4.81672 11.1 4.70561C11.2111 4.5945 11.2667 4.45006 11.2667 4.27228C11.2667 4.0945 11.2111 3.95006 11.1 3.83895C10.9889 3.72783 10.8556 3.67228 10.7 3.67228C10.5444 3.67228 10.4111 3.72783 10.3 3.83895C10.1889 3.95006 10.1333 4.0945 10.1333 4.27228ZM10.5333 6.33895C10.5333 6.47228 10.5889 6.60561 10.7 6.73895C10.8111 6.87228 10.9444 6.93895 11.1 6.93895C11.2556 6.93895 11.3889 6.87228 11.5 6.73895C11.6111 6.60561 11.6667 6.46117 11.6667 6.30561C11.6667 6.15006 11.6111 6.01672 11.5 5.90561C11.3889 5.7945 11.2556 5.73895 11.1 5.73895C10.9444 5.73895 10.8111 5.7945 10.7 5.90561C10.5889 6.01672 10.5333 6.16117 10.5333 6.33895Z" fill="#1A1A1A"/>
</svg>
