<svg width="21" height="15" viewBox="0 0 21 15" fill="none" xmlns="http://www.w3.org/2000/svg">
<path d="M18.1935 4.0167H9.39349C8.94905 4.0167 8.52682 4.15003 8.12682 4.4167C8.03793 3.75003 7.76016 3.20559 7.29349 2.78337C6.82682 2.36114 6.28238 2.15003 5.66016 2.15003C5.17127 2.15003 4.72682 2.26114 4.32682 2.48337V1.48337C4.32682 1.30559 4.27127 1.16114 4.16016 1.05003C4.04905 0.938921 3.9046 0.883366 3.72682 0.883366H1.26016C1.08238 0.883366 0.937934 0.938921 0.826823 1.05003C0.715712 1.16114 0.660156 1.30559 0.660156 1.48337V14.0167C0.660156 14.1945 0.715712 14.3389 0.826823 14.45C0.937934 14.5611 1.08238 14.6167 1.26016 14.6167H3.72682C3.9046 14.6167 4.04905 14.5611 4.16016 14.45C4.27127 14.3389 4.32682 14.1945 4.32682 14.0167V12.0834H16.9935V14.0167C16.9935 14.1945 17.049 14.3389 17.1602 14.45C17.2713 14.5611 17.4157 14.6167 17.5935 14.6167H20.0602C20.2379 14.6167 20.3824 14.5611 20.4935 14.45C20.6046 14.3389 20.6602 14.1945 20.6602 14.0167V6.48337C20.6602 5.8167 20.4157 5.23892 19.9268 4.75003C19.4379 4.26114 18.8602 4.0167 18.1935 4.0167ZM5.66016 3.28337C6.01571 3.28337 6.31571 3.4167 6.56016 3.68336C6.8046 3.95003 6.92682 4.26114 6.92682 4.6167C6.92682 4.97225 6.8046 5.27225 6.56016 5.5167C6.31571 5.76114 6.01571 5.88337 5.66016 5.88337C5.3046 5.88337 4.99349 5.76114 4.72682 5.5167C4.46016 5.27225 4.32682 4.97225 4.32682 4.6167C4.32682 4.26114 4.46016 3.95003 4.72682 3.68336C4.99349 3.4167 5.3046 3.28337 5.66016 3.28337ZM4.32682 6.68337C4.72682 6.95003 5.16016 7.08337 5.62682 7.08337C6.09349 7.08337 6.52682 6.95003 6.92682 6.68337V8.4167H4.32682V6.68337ZM19.4602 13.4167H18.1268V11.4834C18.1268 11.35 18.0713 11.2278 17.9602 11.1167C17.849 11.0056 17.7268 10.95 17.5935 10.95H3.72682C3.59349 10.95 3.47127 11.0056 3.36016 11.1167C3.24905 11.2278 3.19349 11.35 3.19349 11.4834V13.4167H1.86016V2.08337H3.19349V9.0167C3.19349 9.15003 3.24905 9.28337 3.36016 9.4167C3.47127 9.55003 3.59349 9.6167 3.72682 9.6167H19.4602V13.4167ZM19.4602 8.4167H8.12682V6.48337C8.12682 6.12781 8.24905 5.82781 8.49349 5.58337C8.73793 5.33892 9.03793 5.2167 9.39349 5.2167H18.1935C18.549 5.2167 18.849 5.33892 19.0935 5.58337C19.3379 5.82781 19.4602 6.12781 19.4602 6.48337V8.4167Z" fill="#1A1A1A"/>
</svg>
