<svg width="21" height="21" viewBox="0 0 21 21" fill="none" xmlns="http://www.w3.org/2000/svg">
<g clip-path="url(#clip0_2_2128)">
<path d="M16.4436 3.16334C15.5991 2.36334 14.6547 1.74112 13.6102 1.29667C12.5658 0.852226 11.4658 0.630003 10.3102 0.630003C9.15467 0.630003 8.04356 0.852226 6.97689 1.29667C5.91022 1.74112 4.97689 2.36334 4.17689 3.16334C3.37689 3.96334 2.75467 4.89667 2.31022 5.96334C1.86578 7.03 1.64355 8.14112 1.64355 9.29667C1.64355 10.4522 1.86578 11.5522 2.31022 12.5967C2.75467 13.6411 3.37689 14.5856 4.17689 15.43L8.77689 20.03C9.17689 20.43 9.67689 20.63 10.2769 20.63C10.8769 20.63 11.3991 20.43 11.8436 20.03L16.4436 15.43C17.2436 14.5856 17.8658 13.6411 18.3102 12.5967C18.7547 11.5522 18.9769 10.4522 18.9769 9.29667C18.9769 8.14112 18.7547 7.03 18.3102 5.96334C17.8658 4.89667 17.2436 3.96334 16.4436 3.16334ZM15.5769 14.5633L10.9769 19.1633C10.7991 19.3411 10.5769 19.43 10.3102 19.43C10.0436 19.43 9.79911 19.3411 9.57689 19.1633L4.97689 14.5633C4.26578 13.8522 3.73244 13.0411 3.37689 12.13C3.02133 11.2189 2.84355 10.2633 2.84355 9.26334C2.84355 8.26334 3.02133 7.30778 3.37689 6.39667C3.73244 5.48556 4.26578 4.68556 4.97689 3.99667C5.688 3.30778 6.49911 2.77445 7.41022 2.39667C8.32133 2.01889 9.27689 1.83 10.2769 1.83C11.2769 1.83 12.2324 2.01889 13.1436 2.39667C14.0547 2.77445 14.8658 3.29667 15.5769 3.96334C16.5547 4.94112 17.2102 6.07445 17.5436 7.36334C17.8769 8.65223 17.8769 9.94112 17.5436 11.23C17.2102 12.5189 16.5547 13.63 15.5769 14.5633ZM10.3102 6.16334C9.46578 6.16334 8.73244 6.47445 8.11022 7.09667C7.488 7.71889 7.17689 8.45223 7.17689 9.29667C7.17689 10.1411 7.488 10.8633 8.11022 11.4633C8.73244 12.0633 9.46578 12.3633 10.3102 12.3633C11.1547 12.3633 11.8769 12.0633 12.4769 11.4633C13.0769 10.8633 13.3769 10.1411 13.3769 9.29667C13.3769 8.45223 13.0769 7.71889 12.4769 7.09667C11.8769 6.47445 11.1547 6.16334 10.3102 6.16334ZM10.3102 11.23C9.77689 11.23 9.32133 11.0411 8.94355 10.6633C8.56578 10.2856 8.37689 9.83 8.37689 9.29667C8.37689 8.76334 8.56578 8.30778 8.94355 7.93C9.32133 7.55223 9.77689 7.36334 10.3102 7.36334C10.8436 7.36334 11.2991 7.55223 11.6769 7.93C12.0547 8.30778 12.2436 8.76334 12.2436 9.29667C12.2436 9.83 12.0547 10.2856 11.6769 10.6633C11.2991 11.0411 10.8436 11.23 10.3102 11.23Z" fill="#1A1A1A"/>
</g>
<defs>
<clipPath id="clip0_2_2128">
<rect width="20" height="20" fill="white" transform="matrix(1 0 0 -1 0.310059 20.63)"/>
</clipPath>
</defs>
</svg>
